<?xml version="1.0" encoding="utf-8"?>
<!-- Generator: Adobe Illustrator 16.0.3, SVG Export Plug-In . SVG Version: 6.00 Build 0)  -->
<!DOCTYPE svg PUBLIC "-//W3C//DTD SVG 1.1//EN" "http://www.w3.org/Graphics/SVG/1.1/DTD/svg11.dtd">
<svg version="1.1" id="Capa_1" focusable="false" xmlns="http://www.w3.org/2000/svg" xmlns:xlink="http://www.w3.org/1999/xlink"
	 x="0px" y="0px" width="3276.909px" height="560px" viewBox="187.421 0 3276.909 560"
	 enable-background="new 187.421 0 3276.909 560" xml:space="preserve">
<path d="M742.608,187.557L582.812,164.26L511.39,19.447c-12.797-25.813-49.875-26.141-62.781,0L377.187,164.26L217.39,187.557
	c-28.656,4.156-40.141,39.484-19.359,59.719L313.64,359.932l-27.344,159.141c-4.922,28.766,25.375,50.313,50.75,36.859
	l142.953-75.141l142.953,75.141c25.375,13.344,55.672-8.094,50.75-36.859l-27.344-159.141l115.609-112.656
	C782.749,227.041,771.265,191.713,742.608,187.557L742.608,187.557z M590.03,341.557l25.922,151.375L479.999,421.51l-135.953,71.422
	l25.922-151.375L259.937,234.369l152.031-22.094l68.031-137.813l68.031,137.813l152.031,22.094L590.03,341.557L590.03,341.557z"/>
<path d="M1415.548,187.557l-159.797-23.297l-71.422-144.813c-12.797-25.813-49.875-26.141-62.781,0l-71.422,144.813l-159.797,23.297
	c-28.656,4.156-40.141,39.484-19.359,59.719l115.609,112.656l-27.344,159.141c-4.922,28.766,25.375,50.313,50.75,36.859
	l142.953-75.141l142.953,75.141c25.375,13.344,55.672-8.094,50.75-36.859l-27.344-159.141l115.609-112.656
	C1455.688,227.041,1444.204,191.713,1415.548,187.557L1415.548,187.557z M1262.97,341.557l25.922,151.375l-135.953-71.422
	l-135.953,71.422l25.922-151.375L932.876,234.369l152.031-22.094l68.031-137.813l68.031,137.813l152.031,22.094L1262.97,341.557
	L1262.97,341.557z"/>
<path d="M2088.485,187.557l-159.797-23.297l-71.422-144.813c-12.797-25.813-49.875-26.141-62.781,0l-71.422,144.813l-159.797,23.297
	c-28.656,4.156-40.141,39.484-19.359,59.719l115.609,112.656l-27.344,159.141c-4.922,28.766,25.375,50.313,50.75,36.859
	l142.953-75.141l142.953,75.141c25.375,13.344,55.672-8.094,50.75-36.859l-27.344-159.141l115.609-112.656
	C2128.626,227.041,2117.142,191.713,2088.485,187.557L2088.485,187.557z M1935.907,341.557l25.922,151.375l-135.953-71.422
	l-135.953,71.422l25.922-151.375l-110.031-107.188l152.031-22.094l68.031-137.813l68.031,137.813l152.031,22.094L1935.907,341.557
	L1935.907,341.557z"/>
<path d="M2761.424,187.557l-159.797-23.297l-71.422-144.813c-12.797-25.813-49.875-26.141-62.781,0l-71.422,144.813l-159.797,23.297
	c-28.656,4.156-40.141,39.484-19.359,59.719l115.609,112.656l-27.344,159.141c-4.922,28.766,25.375,50.313,50.75,36.859
	l142.953-75.141l142.953,75.141c25.375,13.344,55.672-8.094,50.75-36.859l-27.344-159.141l115.609-112.656
	C2801.564,227.041,2790.08,191.713,2761.424,187.557L2761.424,187.557z M2608.846,341.557l25.922,151.375l-135.953-71.422
	l-135.953,71.422l25.922-151.375l-110.031-107.188l152.031-22.094l68.031-137.813l68.031,137.813l152.031,22.094L2608.846,341.557
	L2608.846,341.557z"/>
<path d="M3434.361,187.557l-159.797-23.297l-71.422-144.813c-12.797-25.813-49.875-26.141-62.781,0l-71.422,144.813l-159.797,23.297
	c-28.656,4.156-40.141,39.484-19.359,59.719l115.609,112.656l-27.344,159.141c-4.922,28.766,25.375,50.313,50.75,36.859
	l142.953-75.141l142.953,75.141c25.375,13.344,55.672-8.094,50.75-36.859l-27.344-159.141l115.609-112.656
	C3474.502,227.041,3463.018,191.713,3434.361,187.557L3434.361,187.557z M3281.783,341.557l25.922,151.375l-135.953-71.422
	l-135.953,71.422l25.922-151.375l-110.031-107.188l152.031-22.094l68.031-137.813l68.031,137.813l152.031,22.094L3281.783,341.557
	L3281.783,341.557z"/>
</svg>
